<svg width="200" height="55" viewBox="0 0 200 55" fill="none" xmlns="http://www.w3.org/2000/svg">
<path d="M113.362 53.7492C122.85 50.1586 120.533 41.6164 119.443 38.3547C115.829 27.808 106.704 1.16768 106.317 0.0393403C106.308 0.0143057 106.303 0 106.303 0H92.291L77.7086 42.3191C81.2956 42.2458 84.9077 42.3031 88.5323 42.5409L98.8389 8.88369H99.7209L109.922 43.3545C110.627 43.249 111.267 43.1632 111.786 43.0219C116.937 41.6164 117.957 38.04 117.957 38.04C117.957 38.04 118.127 42.5355 111.811 44.5776C105.002 46.7807 98.3934 45.309 88.4786 44.4668C78.9251 43.6567 69.2787 44.0984 60.566 45.6523C54.3617 46.7574 49.8783 48.4133 49.6762 48.492C49.6762 48.492 67.3644 45.8437 84.0722 50.1568C99.6976 54.1891 106.086 56.5048 113.362 53.751" fill="#56A9CF"/>
<path d="M36.2566 18.8439H37.704C38.1888 18.8439 38.5394 18.9548 38.7756 19.1836C39.0189 19.4197 39.137 19.7773 39.137 20.2762V35.3363C39.137 36.2662 38.6682 36.7168 37.704 36.7168H36.2584V40.1733H50.7228V36.715H48.4525C47.4882 36.715 47.0213 36.2626 47.0213 35.3345V23.2392L47.0302 23.2267C48.202 21.7354 50.4455 20.8449 53.0306 20.8449H53.0378C53.9359 20.8449 54.571 20.9092 55.0934 21.0505H55.5568V15.0118C55.0952 14.8777 54.5692 14.8169 53.8572 14.8169H53.8518C50.5922 14.8169 48.3094 17.2721 47.2592 19.5699L47.2467 19.5967H47.0177V16.7249C47.0177 16.2743 46.9086 15.9542 46.6849 15.7414C46.4649 15.534 46.1339 15.432 45.6759 15.432H36.2584V18.8385L36.2566 18.8439Z" fill="currentColor"/>
<path d="M173.873 36.7168H172.426C171.463 36.7168 170.994 36.2644 170.994 35.3363V16.7303C170.994 15.8612 170.572 15.4392 169.703 15.4374H159.926V18.8439H161.731C162.659 18.8439 163.112 19.3124 163.112 20.2762V33.6071L163.099 33.6196C162.523 34.1954 160.927 35.5348 158.543 35.5348H158.539C156.022 35.5348 154.948 34.3528 154.948 31.5829V16.7285C154.948 16.2814 154.841 15.9595 154.621 15.745C154.408 15.5375 154.092 15.4356 153.657 15.4356H144.239V18.8421H145.687C146.615 18.8421 147.068 19.3106 147.068 20.2744V32.8168C147.068 35.4794 147.68 37.407 148.939 38.7088C150.224 40.0392 152.152 40.6865 154.832 40.6865H154.839C159.235 40.6865 161.89 38.2886 162.829 37.2568L162.842 37.2425H163.112V38.5211C163.112 39.0843 163.251 39.4902 163.541 39.7603C163.836 40.0374 164.287 40.1716 164.915 40.1716H164.917H173.873V36.715V36.7168Z" fill="currentColor"/>
<path d="M199.998 36.7168H198.962H198.961C197.404 36.7168 197.12 36.1464 197.12 35.027V22.9478C197.12 19.806 196.397 17.8711 194.778 16.6748C193.143 15.466 190.489 14.9242 186.181 14.9224H186.16C182.04 14.9224 178.378 15.4875 176.589 16.3959V20.7948H177.099C178.458 20.1189 180.922 19.7148 183.691 19.7148H183.702C185.876 19.7148 187.217 20.0187 188.053 20.6947C188.874 21.3599 189.239 22.4185 189.239 24.128V26.1773H186.468C182.272 26.1773 179.297 26.8138 177.372 28.1228C175.53 29.3745 174.635 31.2628 174.635 33.895C174.635 35.9228 175.29 37.6127 176.53 38.7839C177.866 40.0446 179.805 40.6848 182.296 40.6866H182.303C185.196 40.6866 187.539 39.6315 189.47 37.4643L189.482 37.45H189.752V37.4947C189.752 40.1769 191.089 40.6866 193.558 40.6884H193.565C195.953 40.6884 198.513 40.4166 200 40.1805V36.7168H199.998ZM189.232 34.4333C188.686 35.3596 187.282 36.3574 185.489 36.3574H185.487C184.568 36.3574 183.809 36.0695 183.29 35.5277C182.741 34.9501 182.462 34.1078 182.462 33.0224C182.462 31.7921 182.85 30.9106 183.65 30.3258C184.475 29.7232 185.75 29.43 187.545 29.43H189.235V34.4208L189.228 34.4315L189.232 34.4333Z" fill="currentColor"/>
<path d="M55.2329 27.935C55.2329 32.0925 56.4012 35.3041 58.7037 37.4821C60.9525 39.6083 64.2139 40.6866 68.3949 40.6883H68.4056C72.3862 40.6883 75.7228 39.4903 78.0575 37.2211L81.657 26.7763C81.3636 19.0263 76.8212 14.9278 68.5183 14.9242H68.5076C64.4429 14.9242 61.0724 16.1312 58.7556 18.4129C56.4513 20.6839 55.2329 23.976 55.2329 27.935ZM68.4038 18.6383H68.4074C70.1374 18.6383 71.3647 19.3607 72.159 20.8467C72.9498 22.3255 73.3344 24.6108 73.3344 27.8331C73.3344 34.1561 71.8298 36.9761 68.4557 36.9761H68.4539C66.7454 36.9761 65.5324 36.2608 64.747 34.7945C63.9599 33.3246 63.5788 31.0482 63.5788 27.8349C63.5788 21.4761 65.0673 18.64 68.4056 18.64" fill="currentColor"/>
<path d="M32.9773 28.7576C32.9773 28.2819 33.0954 27.9404 33.3387 27.7097C33.5766 27.4844 33.9273 27.3753 34.4103 27.3753H36.1654V23.9187H20.7761V27.3771H23.2521C23.7352 27.3771 24.084 27.4862 24.322 27.7115C24.5653 27.9404 24.6833 28.2837 24.6833 28.7594V35.9854L24.6565 35.9979C23.9015 36.3269 22.4936 36.7203 20.0623 36.7203H20.0551C16.4573 36.7203 13.6557 35.5741 11.7289 33.3192C9.72163 30.9678 8.70366 27.4468 8.70366 22.8494C8.70366 18.1393 9.73415 14.5504 11.7683 12.1811C13.7094 9.91905 16.5504 8.77282 20.2161 8.77282H20.2322C23.4579 8.77282 25.4115 9.17338 26.569 10.0675C27.4707 10.8185 27.8714 11.8592 27.8714 13.4436V14.7865H31.7411V7.63554C31.7411 6.54654 31.2151 6.19069 30.1793 5.87954C27.6818 5.16606 24.4257 4.80306 20.4988 4.80127H20.4719C14.4733 4.80127 9.37634 6.48216 5.73029 9.65976C1.98046 12.9286 -0.00178783 17.6136 1.20992e-06 23.2088C1.20992e-06 28.8541 1.74431 33.2441 5.18463 36.2572C8.54444 39.197 13.3534 40.6901 19.4808 40.6919H19.4951C24.4722 40.6919 30.3796 40.066 32.9755 39.2649V28.7611L32.9773 28.7576Z" fill="currentColor"/>
<path d="M116.973 27.0659L120.844 38.3655C122.896 39.9051 125.673 40.6865 129.095 40.6883H129.106C130.109 40.6883 131.244 40.5488 131.941 40.3396V37.1281H131.523H131.519C129.399 37.1281 127.866 36.4628 126.827 35.1002C125.735 33.6643 125.204 31.472 125.204 28.3981C125.204 22.1252 127.472 19.2051 132.346 19.2051H134.24V46.6966C134.24 47.1616 134.11 47.5156 133.852 47.7445C133.605 47.9644 133.237 48.0771 132.755 48.0771H130.539V51.7393H144.951V48.0771H143.556H143.554C143.071 48.0771 142.722 47.968 142.484 47.7427C142.241 47.5138 142.123 47.1705 142.123 46.6948V15.4374H131.573C123.104 15.4374 117.783 19.6754 116.973 27.0659Z" fill="currentColor"/>
</svg>
